<svg width="89" height="48" viewBox="0 0 89 48" fill="none" xmlns="http://www.w3.org/2000/svg">
<path d="M80.8736 41.2702C80.3838 41.2702 79.9626 40.8979 79.61 40.1535C79.2573 39.409 79.081 38.4979 79.081 37.4204L79.081 34.2465C79.081 33.8743 80.1096 33.2375 82.1667 32.3363C84.2238 31.4155 85.4092 30.9551 85.7226 30.9551C85.899 30.9551 86.0557 31.0628 86.1928 31.2783C86.33 31.4743 86.4377 31.6408 86.5161 31.7779C86.5945 31.8955 86.712 32.111 86.8687 32.4245C87.0451 32.7183 87.192 32.9632 87.3096 33.1592C87.5643 33.6294 87.8875 33.8645 88.2794 33.8645L88.2794 34.4522C87.9659 34.5894 87.5545 34.7951 87.0451 35.0694C85.7912 35.7551 85.1153 36.0979 85.0173 36.0979C84.7234 36.0979 84.4002 35.6179 84.0475 34.6579C83.7145 33.6979 83.4108 33.2179 83.1365 33.2179C82.7838 33.2179 82.6075 33.5118 82.6075 34.0996L82.6075 37.7143C82.6075 38.4979 82.7838 38.8898 83.1365 38.8898C83.2149 38.8898 83.8222 38.6351 84.9585 38.1257C86.0949 37.6163 86.7806 37.3616 87.0157 37.3616C87.4859 37.3616 87.8973 37.7437 88.25 38.5077C88.6222 39.2522 88.8083 40.2122 88.8083 41.3877L88.8083 44.7086C88.8083 45.0808 87.6818 45.7273 85.4287 46.6481C83.1953 47.5494 81.912 48 81.5789 48C81.4418 48 81.3047 47.8824 81.1675 47.6473C81.05 47.3926 80.8736 47.0106 80.6385 46.5012C80.423 45.9918 80.2075 45.5608 79.992 45.2081C79.7373 44.7379 79.4141 44.5028 79.0222 44.5028L79.0222 43.9151C79.3357 43.7779 79.7569 43.5722 80.2859 43.2979C81.5202 42.6122 82.1863 42.2694 82.2843 42.2694C82.5781 42.2694 82.9406 42.8473 83.3716 44.0032C83.8222 45.1592 84.1847 45.7371 84.459 45.7371C84.6549 45.7371 84.841 45.6588 85.0173 45.502C85.1936 45.3453 85.2818 45.1298 85.2818 44.8555L85.2818 41.182C85.2818 40.3004 85.0369 39.8596 84.5471 39.8596C84.3904 39.8596 83.7732 40.0947 82.6957 40.5649C81.6181 41.0351 81.0108 41.2702 80.8736 41.2702Z" fill="white"/>
<path d="M66.8942 45.7078L66.8942 35.7453C66.8942 35.0988 66.7571 34.5404 66.4828 34.0702C66.2085 33.6 65.8657 33.3649 65.4542 33.3649L65.4542 32.7184C65.5914 32.6988 66.6591 32.1013 68.6575 30.9258C68.7946 30.9649 68.9612 31.0237 69.1571 31.1021C69.353 31.1609 69.6077 31.347 69.9212 31.6604C70.2542 31.9739 70.4208 32.3364 70.4208 32.7478C70.5383 32.689 70.8714 32.5029 71.4199 32.1894C72.8697 31.3666 73.7318 30.9551 74.0061 30.9551C74.633 30.9551 75.2208 31.3666 75.7693 32.1894C76.3179 33.0123 76.5922 33.7666 76.5922 34.4523L76.5922 43.3568C76.5922 44.4343 77.0722 45.0711 78.0322 45.267L78.0322 45.9135L74.8289 47.7062C74.3979 47.5298 73.9963 47.2458 73.624 46.8539C73.2518 46.4425 73.0657 46.0604 73.0657 45.7078L73.0657 37.1853C73.0657 36.0882 72.9383 35.2555 72.6836 34.6874C72.4485 34.0996 72.0175 33.8058 71.3905 33.8058L70.4208 33.9821L70.4208 43.3568C70.4208 44.5519 70.8224 45.2278 71.6257 45.3845L71.6257 46.0311L68.6575 47.7062C68.2265 47.5298 67.8248 47.2458 67.4526 46.8539C67.0803 46.4425 66.8942 46.0604 66.8942 45.7078Z" fill="white"/>
<path d="M63.9636 32.9535L63.9636 43.3568C63.9636 44.5519 64.3652 45.2278 65.1685 45.3845L65.1685 46.031L62.2003 47.7061C61.7693 47.5298 61.3677 47.2457 60.9954 46.8539C60.6232 46.4425 60.4371 46.0604 60.4371 45.7078L60.4371 35.3045C60.4371 34.1094 60.0354 33.4335 59.2322 33.2767L59.2322 32.6302L62.2003 30.9551C62.6314 31.1314 63.033 31.4253 63.4052 31.8367C63.7775 32.2286 63.9636 32.6008 63.9636 32.9535ZM59.9963 27.2816L59.9963 25.489C59.9963 25.4302 60.3979 25.2539 61.2012 24.96C62.024 24.6465 62.4942 24.4898 62.6118 24.4898C62.7489 24.4898 62.935 24.6563 63.1701 24.9894C63.4248 25.3225 63.5522 25.6653 63.5522 26.018L63.5522 28.1633C63.5522 28.2221 63.1603 28.4082 62.3767 28.7216C61.593 29.0155 61.113 29.1625 60.9367 29.1625C60.7603 29.1625 60.5546 28.9959 60.3195 28.6629C60.104 28.3102 59.9963 27.8498 59.9963 27.2816Z" fill="white"/>
<path d="M57.5063 27.1053L57.5063 43.3567C57.5063 44.5518 57.908 45.2278 58.7112 45.3845L58.7112 46.031L55.7431 47.7061C55.312 47.5298 54.9104 47.2457 54.5382 46.8539C54.1659 46.4425 53.9798 46.0604 53.9798 45.7078L53.9798 29.4563C53.9798 28.2612 53.5782 27.5853 52.7749 27.4286L52.7749 26.782L55.7431 25.1069C56.1741 25.2833 56.5757 25.5771 56.948 25.9886C57.3202 26.3804 57.5063 26.7526 57.5063 27.1053Z" fill="white"/>
<path d="M44.8787 42.4163C44.8787 44.1404 45.3293 45.0024 46.2305 45.0024C46.7007 45.0024 47.1317 44.8457 47.5236 44.5322L47.5236 37.1853C47.5236 35.2653 47.1709 34.178 46.4656 33.9233C46.1326 33.8057 45.6036 33.7469 44.8787 33.7469L44.8787 42.4163ZM51.0795 44.9731C51.0795 45.169 49.9922 45.6784 47.8175 46.5012C45.6624 47.3045 44.3399 47.7061 43.8501 47.7061C43.3603 47.7061 42.8215 47.2653 42.2338 46.3837C41.646 45.4825 41.3521 44.4931 41.3521 43.4155L41.3521 31.1608C41.3521 30.6318 41.264 30.2596 41.0877 30.0441C40.9113 29.809 40.6077 29.6914 40.1766 29.6914L40.1766 28.8686C42.7236 27.5363 44.9962 26.2824 46.9946 25.1069L47.4648 26.0473C47.2689 26.1453 46.9946 26.3412 46.6419 26.6351C46.2893 26.9094 45.9954 27.1935 45.7603 27.4873C45.1726 28.2318 44.8787 29.0743 44.8787 30.0147L44.8787 32.5127C46.8966 31.4743 48.0722 30.9551 48.4052 30.9551C48.9146 30.9551 49.4828 31.3567 50.1097 32.16C50.7562 32.9633 51.0795 33.8155 51.0795 34.7167L51.0795 44.9731Z" fill="white"/>
<path d="M28.6959 43.4155L28.6959 33.6588C28.6959 33.5216 29.8127 33.0416 32.0461 32.2188C34.2796 31.3763 35.5629 30.9551 35.8959 30.9551C36.229 30.9551 36.7286 31.3567 37.3947 32.16C38.0804 32.9632 38.4233 33.6881 38.4233 34.3347L38.4233 44.973C38.4233 45.1298 37.3457 45.6294 35.1906 46.4718C33.0551 47.2947 31.7425 47.7061 31.2527 47.7061C30.7825 47.7061 30.2339 47.2849 29.6069 46.4424C28.9996 45.6 28.6959 44.591 28.6959 43.4155ZM33.7212 45.0024C34.0935 45.0024 34.4755 44.8457 34.8674 44.5322L34.8674 35.8628C34.8674 34.413 34.3678 33.6881 33.3686 33.6881C32.9767 33.6881 32.5947 33.8351 32.2225 34.129L32.2225 42.8277C32.2225 44.2775 32.722 45.0024 33.7212 45.0024Z" fill="white"/>
<path d="M21.352 45.0025C21.7242 45.0025 22.1063 44.8457 22.4981 44.5323L22.4981 40.7413C22.4981 39.5462 22.0965 38.8702 21.2932 38.7135L21.2932 38.067L24.2614 36.3919C24.6728 36.5682 25.0744 36.8621 25.4663 37.2735C25.8581 37.6653 26.054 38.0376 26.054 38.3902L26.054 44.9731C26.054 45.1298 24.9765 45.6294 22.8214 46.4719C20.6858 47.2947 19.3732 47.7062 18.8834 47.7062C18.4132 47.7062 17.8646 47.2849 17.2377 46.4425C16.6303 45.6 16.3267 44.5911 16.3267 43.4155L16.3267 27.7813C16.3267 27.6441 17.4434 27.1641 19.6769 26.3412C21.9299 25.4988 23.223 25.0776 23.5561 25.0776C23.6736 25.0776 23.8107 25.3617 23.9675 25.9298C24.1242 26.498 24.3005 27.1837 24.4965 27.987C24.712 28.7902 24.9275 29.3878 25.143 29.7796C25.3781 30.1519 25.8091 30.338 26.4361 30.338L26.4361 30.9257C26.005 31.1217 25.2703 31.4743 24.232 31.9837C23.2132 32.4735 22.6646 32.7184 22.5863 32.7184C22.2924 32.7184 21.9201 31.9249 21.4695 30.338C21.0189 28.7315 20.6565 27.9282 20.3822 27.9282C20.1863 27.9282 20.0099 28.0261 19.8532 28.2221L19.8532 42.8278C19.8532 44.2776 20.3528 45.0025 21.352 45.0025Z" fill="white"/>
<path d="M79.3998 16.7804C78.91 16.7804 78.4887 16.4081 78.1361 15.6636C77.7834 14.9192 77.6071 14.0081 77.6071 12.9306L77.6071 9.7567C77.6071 9.38446 78.6357 8.74772 80.6928 7.8465C82.75 6.92568 83.9353 6.46527 84.2488 6.46527C84.4251 6.46527 84.5818 6.57303 84.719 6.78854C84.8561 6.98446 84.9639 7.15099 85.0422 7.28813C85.1206 7.40568 85.2381 7.62119 85.3949 7.93466C85.5712 8.22854 85.7181 8.47344 85.8357 8.66935C86.0904 9.13956 86.4136 9.37466 86.8055 9.37466L86.8055 9.96242C86.492 10.0996 86.0806 10.3053 85.5712 10.5796C84.3173 11.2653 83.6414 11.6081 83.5434 11.6081C83.2496 11.6081 82.9263 11.1281 82.5736 10.1681C82.2406 9.20813 81.9369 8.72813 81.6626 8.72813C81.31 8.72813 81.1336 9.02201 81.1336 9.60976L81.1336 13.2245C81.1336 14.0081 81.31 14.4 81.6626 14.4C81.741 14.4 82.3483 14.1453 83.4847 13.6359C84.621 13.1265 85.3067 12.8718 85.5418 12.8718C86.012 12.8718 86.4234 13.2538 86.7761 14.0179C87.1483 14.7624 87.3345 15.7224 87.3345 16.8979L87.3345 20.2187C87.3345 20.591 86.2079 21.2375 83.9549 22.1583C81.7214 23.0596 80.4381 23.5102 80.1051 23.5102C79.9679 23.5102 79.8308 23.3926 79.6936 23.1575C79.5761 22.9028 79.3998 22.5208 79.1647 22.0114C78.9492 21.502 78.7336 21.071 78.5181 20.7183C78.2634 20.2481 77.9402 20.013 77.5483 20.013L77.5483 19.4253C77.8618 19.2881 78.283 19.0824 78.812 18.8081C80.0463 18.1224 80.7124 17.7796 80.8104 17.7796C81.1043 17.7796 81.4667 18.3575 81.8977 19.5134C82.3483 20.6694 82.7108 21.2473 82.9851 21.2473C83.181 21.2473 83.3671 21.169 83.5434 21.0122C83.7198 20.8555 83.8079 20.64 83.8079 20.3657L83.8079 16.6922C83.8079 15.8106 83.563 15.3698 83.0732 15.3698C82.9165 15.3698 82.2994 15.6049 81.2218 16.0751C80.1443 16.5453 79.5369 16.7804 79.3998 16.7804Z" fill="white"/>
<path d="M70.9452 0.587738C71.4742 0.587738 72.3068 1.871 73.4431 4.43753C74.5795 7.00407 75.1476 8.77713 75.1476 9.75672L75.1476 18.72C75.1476 19.1706 75.2652 19.6114 75.5003 20.0424C75.755 20.4735 76.1076 20.7184 76.5582 20.7771L76.5582 21.4237C76.4211 21.4433 75.3534 22.0408 73.355 23.2163C72.9044 23.0204 72.4929 22.7363 72.1207 22.3641C71.768 21.9722 71.5917 21.6098 71.5917 21.2767C69.4954 22.5698 68.2709 23.2163 67.9182 23.2163C67.7811 23.2163 67.5166 23.0694 67.1248 22.7755C66.7525 22.462 66.3705 22.0212 65.9787 21.4531C65.6064 20.8653 65.4203 20.2677 65.4203 19.6604L65.4203 9.16897C65.4203 8.97305 67.0758 8.29713 70.3868 7.14121C69.6815 5.59345 69.1133 4.50611 68.6823 3.87917C68.2513 3.25223 67.8301 2.93876 67.4187 2.93876L66.4489 2.93876L66.4489 2.05713C68.6236 1.07753 70.1223 0.587738 70.9452 0.587738ZM70.4456 20.5126C70.8178 20.5126 71.1999 20.3559 71.5917 20.0424L71.5917 9.8155C71.5917 9.69795 71.5036 9.45305 71.3272 9.0808C71.1705 8.68896 71.0529 8.49305 70.9746 8.49305C70.4064 8.49305 69.8285 8.66937 69.2407 9.02203L68.9468 9.19835L68.9468 18.3379C68.9468 19.7877 69.4464 20.5126 70.4456 20.5126Z" fill="white"/>
<path d="M52.8164 8.22854L56.0491 6.46527C56.1862 6.50446 56.3429 6.56323 56.5193 6.6416C56.7152 6.70037 56.9699 6.8865 57.2833 7.19997C57.6164 7.51343 57.7829 7.86609 57.7829 8.25793C57.8809 8.21874 58.3413 7.91507 59.1642 7.34691C60.0066 6.75915 60.5454 6.46527 60.7805 6.46527C61.4074 6.46527 61.9952 6.8767 62.5438 7.69956C63.0923 8.52242 63.3666 9.2767 63.3666 9.96242L63.3666 11.4024L60.3397 13.1069L59.8401 12.6955C59.8401 11.0498 59.6834 10.1094 59.3699 9.87425C59.0172 9.61956 58.4882 9.49221 57.7829 9.49221L57.7829 18.8669C57.7829 20.062 58.1846 20.7379 58.9878 20.8947L58.9878 21.5412L56.0197 23.2163C55.5887 23.04 55.187 22.7559 54.8148 22.3641C54.4425 21.9526 54.2564 21.5706 54.2564 21.2179L54.2564 11.4612C54.2564 10.5992 54.0997 9.95262 53.7862 9.5216C53.4923 9.09058 53.1691 8.87507 52.8164 8.87507L52.8164 8.22854Z" fill="white"/>
<path d="M51.3131 10.3445L51.3131 18.6612C51.3131 19.3861 51.4306 19.8955 51.6657 20.1894C51.9008 20.4636 52.2633 20.6596 52.7531 20.7771L52.7531 21.4236L49.5498 23.2163C49.1188 23.04 48.7172 22.7559 48.3449 22.3641C47.9727 21.9526 47.7865 21.5804 47.7865 21.2473L44.1131 23.2163C44.0543 23.1771 43.9661 23.1281 43.8486 23.0694C43.731 22.991 43.5253 22.8441 43.2314 22.6285C42.9572 22.3934 42.7123 22.1485 42.4967 21.8938C41.909 21.2473 41.6151 20.5126 41.6151 19.6898L41.6151 14.8702C41.6151 14.5567 42.1245 14.1551 43.1433 13.6653C44.1621 13.1755 45.1808 12.7738 46.1996 12.4604L47.7572 11.9608C47.7572 10.844 47.4633 10.0702 46.8755 9.63915C46.2878 9.18854 45.1514 8.96323 43.4665 8.96323L43.4665 8.0816C46.5033 7.00405 48.2078 6.46527 48.58 6.46527C49.2265 6.46527 49.8437 6.8865 50.4314 7.72895C51.0192 8.5714 51.3131 9.44323 51.3131 10.3445ZM45.1416 18.6318C45.1416 19.1412 45.2886 19.5624 45.5825 19.8955C45.8959 20.209 46.2388 20.3657 46.611 20.3657C46.9833 20.3657 47.3751 20.2187 47.7865 19.9249L47.7865 13.2832C47.2967 13.4596 46.9245 13.6065 46.6698 13.7241C46.4347 13.8416 46.18 14.0277 45.9057 14.2824C45.3963 14.7526 45.1416 15.5657 45.1416 16.7216L45.1416 18.6318Z" fill="white"/>
<path d="M36.0867 20.3364C37.2818 20.3364 37.9577 20.0131 38.1145 19.3666L38.761 19.3666L40.4361 21.7764C40.201 22.1486 39.8973 22.4817 39.5251 22.7756C39.1528 23.0694 38.7904 23.2164 38.4377 23.2164L30.7381 23.2164C30.3463 22.0213 30.1504 21.0907 30.1504 20.4245L37.0565 9.60984L34.4998 9.60984C33.3047 9.60984 32.6288 9.9331 32.472 10.5796L31.8255 10.5796L30.1504 8.16984C30.3855 7.79759 30.6892 7.46453 31.0614 7.17065C31.4337 6.87678 31.7961 6.72984 32.1488 6.72984L36.0867 6.72984C37.2818 6.72984 37.9577 6.40657 38.1145 5.76004L38.761 5.76004C39.0353 6.13229 39.3781 6.818 39.7896 7.81718C40.2206 8.79678 40.4361 9.38453 40.4361 9.58045L33.7651 20.3364L36.0867 20.3364Z" fill="white"/>
<path d="M28.3952 8.46368L28.3952 18.8669C28.3952 20.062 28.7969 20.738 29.6001 20.8947L29.6001 21.5412L26.632 23.2163C26.201 23.04 25.7993 22.7559 25.4271 22.3641C25.0548 21.9527 24.8687 21.5706 24.8687 21.218L24.8687 10.8147C24.8687 9.6196 24.4671 8.94368 23.6638 8.78694L23.6638 8.14041L26.632 6.46531C27.063 6.64163 27.4646 6.93551 27.8369 7.34694C28.2091 7.73878 28.3952 8.11102 28.3952 8.46368ZM24.4279 2.79184L24.4279 0.999183C24.4279 0.940407 24.8295 0.764081 25.6328 0.470203C26.4557 0.156734 26.9259 -7.6944e-09 27.0434 -7.97167e-09C27.1806 -8.29516e-09 27.3667 0.16653 27.6018 0.499591C27.8565 0.832653 27.9838 1.17551 27.9838 1.52816L27.9838 3.67347C27.9838 3.73225 27.592 3.91837 26.8083 4.23184C26.0246 4.52572 25.5446 4.67265 25.3683 4.67265C25.192 4.67265 24.9863 4.50612 24.7512 4.17306C24.5357 3.82041 24.4279 3.36 24.4279 2.79184Z" fill="white"/>
<path d="M12.2136 4.90777C12.2136 3.83022 11.7336 3.19348 10.7736 2.99756L10.7736 2.35103C12.8895 1.17552 13.9573 0.587767 13.9769 0.587767C14.1532 0.587767 14.4667 0.783686 14.9173 1.17552C15.3679 1.54777 15.6422 1.9494 15.7401 2.38042C15.7793 2.34124 16.3769 2.03756 17.5328 1.4694C18.6887 0.881645 19.2765 0.587767 19.2961 0.587767C19.6879 0.587767 20.1189 0.822869 20.5891 1.29307C21.4903 2.1943 21.941 3.3992 21.941 4.90777L21.941 20.4833C21.941 20.6596 20.8928 21.1592 18.7965 21.9821C16.7001 22.8049 15.3973 23.2163 14.8879 23.2163C13.9671 23.2163 13.203 22.609 12.5956 21.3943C10.4405 22.609 9.07891 23.2163 8.51075 23.2163C7.94258 23.2163 7.38421 22.8049 6.83564 21.9821C6.30666 21.1396 6.04217 20.3657 6.04217 19.6604L6.04217 4.90777C6.04217 3.83022 5.56217 3.19348 4.60217 2.99756L4.60217 2.35103L7.80544 0.55838C8.23646 0.734707 8.63809 1.02858 9.01034 1.44001C9.38258 1.83185 9.56871 2.1943 9.56871 2.52736L9.56871 17.4857C9.56871 19.347 10.1467 20.2776 11.3026 20.2776C11.5965 20.2776 11.9001 20.2188 12.2136 20.1012L12.2136 4.90777ZM15.7695 17.7796C15.7695 18.4066 15.8871 18.9943 16.1222 19.5429C16.3769 20.0719 16.7197 20.3363 17.1507 20.3363C17.5818 20.3363 17.9932 20.2482 18.385 20.0719L18.385 5.96573C18.385 4.94695 18.1793 4.27103 17.7679 3.93797C17.3565 3.58532 16.6903 3.3992 15.7695 3.37961L15.7695 17.7796Z" fill="white"/>
<path d="M8.66506 32.2948C8.38982 32.2948 8.15311 32.0856 7.95493 31.6673C7.75675 31.2489 7.65766 30.7369 7.65766 30.1314L7.65766 28.3478C7.65766 28.1386 8.23568 27.7808 9.39171 27.2743C10.5477 26.7569 11.2138 26.4981 11.39 26.4981C11.4891 26.4981 11.5772 26.5587 11.6542 26.6798C11.7313 26.7899 11.7919 26.8835 11.8359 26.9606C11.8799 27.0266 11.946 27.1477 12.0341 27.3239C12.1332 27.489 12.2157 27.6266 12.2818 27.7367C12.4249 28.001 12.6066 28.1331 12.8268 28.1331L12.8268 28.4634C12.6506 28.5405 12.4194 28.6561 12.1332 28.8102C11.4285 29.1955 11.0487 29.3882 10.9936 29.3882C10.8285 29.3882 10.6468 29.1185 10.4487 28.579C10.2615 28.0395 10.0908 27.7698 9.9367 27.7698C9.73852 27.7698 9.63943 27.9349 9.63943 28.2652L9.63943 30.2965C9.63943 30.7369 9.73852 30.9571 9.9367 30.9571C9.98074 30.9571 10.322 30.814 10.9606 30.5277C11.5992 30.2415 11.9845 30.0984 12.1166 30.0984C12.3809 30.0984 12.6121 30.313 12.8103 30.7424C13.0194 31.1608 13.124 31.7003 13.124 32.3609L13.124 34.227C13.124 34.4362 12.491 34.7995 11.2248 35.317C9.96973 35.8235 9.24858 36.0767 9.06142 36.0767C8.98435 36.0767 8.90728 36.0106 8.83021 35.8785C8.76415 35.7354 8.66506 35.5207 8.53294 35.2344C8.41184 34.9482 8.29073 34.706 8.16962 34.5078C8.02649 34.2435 7.84483 34.1114 7.62463 34.1114L7.62463 33.7811C7.80079 33.7041 8.0375 33.5885 8.33477 33.4343C9.02839 33.049 9.40272 32.8563 9.45777 32.8563C9.62292 32.8563 9.8266 33.1811 10.0688 33.8307C10.322 34.4803 10.5257 34.8051 10.6799 34.8051C10.79 34.8051 10.8946 34.761 10.9936 34.6729C11.0927 34.5849 11.1423 34.4637 11.1423 34.3096L11.1423 32.2453C11.1423 31.7498 11.0046 31.5021 10.7294 31.5021C10.6413 31.5021 10.2945 31.6342 9.68898 31.8985C9.08344 32.1627 8.74213 32.2948 8.66506 32.2948Z" fill="white"/>
<path d="M6.2756 34.3757L6.2756 28.7607C6.2756 28.1992 6.11045 27.6817 5.78016 27.2083C5.46087 26.7349 5.13608 26.4981 4.80579 26.4981L3.61792 27.0921L3.61792 28.1774C3.76321 28.2279 3.87841 28.2957 3.96354 28.3808C4.17272 28.59 4.27732 29.0469 4.27732 29.7515L4.27732 34.4252C3.94702 34.5904 3.69379 34.6729 3.51764 34.6729C3.34148 34.6729 3.17633 34.5794 3.0222 34.3922C2.86806 34.205 2.79099 33.9738 2.79099 33.6986L2.79099 28.067L2.79099 27.5055C2.75796 27.3404 2.64236 27.1532 2.44418 26.944C2.25701 26.7349 2.04232 26.5807 1.80011 26.4816L2.37622e-09 27.489L3.23322e-09 27.8524C0.539481 27.9624 0.809222 28.3203 0.809222 28.9258L0.809222 33.7646C0.809222 34.161 0.957854 34.6179 1.25512 35.1353C1.56339 35.6528 1.88818 35.9115 2.22949 35.9115C2.57079 35.9115 3.33047 35.6803 4.50852 35.2179C5.68657 34.7555 6.2756 34.4748 6.2756 34.3757Z" fill="white"/>
</svg>
